<?xml version="1.0" standalone="no"?>
<!DOCTYPE svg PUBLIC "-//W3C//DTD SVG 20010904//EN"
 "http://www.w3.org/TR/2001/REC-SVG-20010904/DTD/svg10.dtd">
<svg version="1.0" xmlns="http://www.w3.org/2000/svg"
 width="62.000000pt" height="61.000000pt" viewBox="0 0 62.000000 61.000000"
 preserveAspectRatio="xMidYMid meet">

<g transform="translate(0.000000,61.000000) scale(0.100000,-0.100000)"
fill="#000000" stroke="none">
<path d="M233 585 c-159 -43 -248 -191 -209 -346 19 -72 60 -135 113 -171 58
-40 91 -50 168 -50 105 0 181 38 236 118 119 174 36 396 -168 449 -68 18 -73
18 -140 0z m192 -30 c50 -25 105 -79 130 -130 27 -54 28 -195 2 -243 -23 -42
-86 -106 -129 -129 -47 -25 -199 -25 -246 0 -43 24 -106 87 -128 129 -23 43
-30 154 -14 204 27 83 88 147 175 181 44 18 162 11 210 -12z"/>
<path d="M263 454 c-18 -9 -39 -32 -49 -52 -16 -34 -16 -37 6 -86 12 -28 31
-74 42 -103 29 -73 65 -82 88 -20 7 18 25 62 41 99 20 45 28 74 23 92 -7 27
-50 76 -68 76 -6 0 -20 2 -31 5 -11 3 -34 -2 -52 -11z m112 -29 c31 -30 32
-72 5 -125 -20 -38 -22 -40 -70 -40 -48 0 -50 2 -70 40 -42 82 -11 150 70 150
30 0 47 -6 65 -25z m-36 -217 c-5 -18 -9 -34 -9 -35 0 -2 -9 -3 -19 -3 -15 0
-41 41 -41 66 0 2 18 4 39 4 l40 0 -10 -32z"/>
</g>
</svg>
